<svg width="16" height="16" viewBox="0 0 16 16" fill="none" xmlns="http://www.w3.org/2000/svg">
<path d="M11.7734 10.9092C11.3506 10.9092 11.0078 10.5664 11.0078 10.1436V5.6853C11.0078 4.18271 9.78531 2.9602 8.28268 2.9602C6.78009 2.9602 5.55759 4.18267 5.55759 5.6853V8.27833C5.55759 8.70117 5.21481 9.04395 4.79196 9.04395C4.36912 9.04395 4.02634 8.70117 4.02634 8.27833V5.6853C4.02634 3.33833 5.93571 1.42896 8.28268 1.42896C10.6296 1.42896 12.539 3.33833 12.539 5.6853V10.1436C12.539 10.5664 12.1962 10.9092 11.7734 10.9092Z" fill="#B1B4B5"/>
<path d="M12.9411 15.5455H3.62429C2.75444 15.5455 2.04929 14.8404 2.04929 13.9705V8.58403C2.04929 7.71419 2.75444 7.00903 3.62429 7.00903H12.9411C13.8109 7.00903 14.5161 7.71419 14.5161 8.58403V13.9705C14.5161 14.8404 13.8109 15.5455 12.9411 15.5455Z" fill="#FFB636"/>
<path d="M3.41598 14.2762H3.33707C3.08854 14.2762 2.88707 14.0747 2.88707 13.8262V8.72832C2.88707 8.47979 3.08854 8.27832 3.33707 8.27832H3.41598C3.66451 8.27832 3.86598 8.47979 3.86598 8.72832V13.8262C3.86598 14.0747 3.66451 14.2762 3.41598 14.2762Z" fill="#FFD469"/>
</svg>
